<?xml version="1.0" encoding="UTF-8" standalone="no"?>
<!-- Created with Inkscape (http://www.inkscape.org/) -->
<svg
   xmlns:dc="http://purl.org/dc/elements/1.1/"
   xmlns:cc="http://creativecommons.org/ns#"
   xmlns:rdf="http://www.w3.org/1999/02/22-rdf-syntax-ns#"
   xmlns:svg="http://www.w3.org/2000/svg"
   xmlns="http://www.w3.org/2000/svg"
   xmlns:xlink="http://www.w3.org/1999/xlink"
   xmlns:sodipodi="http://sodipodi.sourceforge.net/DTD/sodipodi-0.dtd"
   xmlns:inkscape="http://www.inkscape.org/namespaces/inkscape"
   width="128"
   height="128"
   id="svg2"
   sodipodi:version="0.32"
   inkscape:version="0.46"
   sodipodi:docbase="/Users/Adam/Desktop/Work/Shyla The Cat"
   sodipodi:docname="pitr_sheep2.svg"
   inkscape:output_extension="org.inkscape.output.svg.inkscape"
   version="1.0"
   inkscape:export-filename="C:\joanna\Gfx\drawings_vector\pitr_icons\pitr_sheep.png"
   inkscape:export-xdpi="90"
   inkscape:export-ydpi="90">
  <defs
     id="defs4">
    <inkscape:perspective
       sodipodi:type="inkscape:persp3d"
       inkscape:vp_x="0 : 526.18109 : 1"
       inkscape:vp_y="0 : 1000 : 0"
       inkscape:vp_z="744.09448 : 526.18109 : 1"
       inkscape:persp3d-origin="372.04724 : 350.78739 : 1"
       id="perspective32" />
    <linearGradient
       id="linearGradient3274">
      <stop
         style="stop-color: rgb(255, 0, 0); stop-opacity: 1;"
         offset="0"
         id="stop3276" />
      <stop
         style="stop-color: rgb(255, 98, 98); stop-opacity: 1;"
         offset="1"
         id="stop3278" />
    </linearGradient>
    <linearGradient
       id="linearGradient3169">
      <stop
         style="stop-color: rgb(212, 212, 212); stop-opacity: 1;"
         offset="0"
         id="stop3171" />
      <stop
         style="stop-color: rgb(159, 150, 150); stop-opacity: 1;"
         offset="1"
         id="stop3173" />
    </linearGradient>
    <linearGradient
       id="linearGradient3161">
      <stop
         style="stop-color: rgb(0, 190, 255); stop-opacity: 1;"
         offset="0"
         id="stop3163" />
      <stop
         style="stop-color: rgb(0, 116, 255); stop-opacity: 1;"
         offset="1"
         id="stop3165" />
    </linearGradient>
    <linearGradient
       inkscape:collect="always"
       xlink:href="#linearGradient3169"
       id="linearGradient3218"
       gradientUnits="userSpaceOnUse"
       gradientTransform="matrix(1.17318,0,0,1.22714,-28.2282,-58.9006)"
       x1="-133.21428"
       y1="544.86218"
       x2="393.21429"
       y2="602.7193" />
    <linearGradient
       inkscape:collect="always"
       xlink:href="#linearGradient3169"
       id="linearGradient3220"
       gradientUnits="userSpaceOnUse"
       x1="-133.21428"
       y1="180.93361"
       x2="393.21429"
       y2="537.005" />
    <linearGradient
       inkscape:collect="always"
       xlink:href="#linearGradient3161"
       id="linearGradient3222"
       gradientUnits="userSpaceOnUse"
       x1="-60.221073"
       y1="215.21931"
       x2="320.22107"
       y2="501.29077" />
  </defs>
  <sodipodi:namedview
     id="base"
     pagecolor="#ffffff"
     bordercolor="#666666"
     borderopacity="1.0"
     gridtolerance="10000"
     guidetolerance="10000"
     objecttolerance="10000"
     inkscape:pageopacity="0.0"
     inkscape:pageshadow="2"
     inkscape:zoom="2.9775825"
     inkscape:cx="45.623795"
     inkscape:cy="77.911069"
     inkscape:document-units="px"
     inkscape:current-layer="layer2"
     showborder="true"
     inkscape:window-width="1280"
     inkscape:window-height="744"
     inkscape:window-x="-4"
     inkscape:window-y="-4"
     showgrid="true"
     inkscape:snap-global="false"
     showguides="true"
     inkscape:guide-bbox="true">
    <inkscape:grid
       type="xygrid"
       id="grid2403"
       visible="true"
       enabled="true"
       empspacing="4" />
    <sodipodi:guide
       orientation="1,0"
       position="46.070501,71.599258"
       id="guide3187" />
  </sodipodi:namedview>
  <metadata
     id="metadata7">
    <rdf:RDF>
      <cc:Work
         rdf:about="">
        <dc:format>image/svg+xml</dc:format>
        <dc:type
           rdf:resource="http://purl.org/dc/dcmitype/StillImage" />
      </cc:Work>
    </rdf:RDF>
  </metadata>
  <g
     inkscape:groupmode="layer"
     id="layer2"
     inkscape:label="bg"
     style="display:inline">
    <g
       id="g3797"
       transform="matrix(0.9788956,0,0,0.9788956,1.0319308,0.5205068)">
      <path
         id="path3788"
         d="M 64.8125,11.75 C 63.027838,11.75 61.392898,12.421911 60.0625,13.59375 C 59.222103,12.855886 58.142886,12.40625 56.9375,12.40625 C 54.302584,12.40625 52.156249,14.552588 52.15625,17.1875 C 52.15625,17.378886 52.134315,17.56448 52.15625,17.75 C 51.470361,17.893462 50.809624,18.107863 50.15625,18.375 C 48.440471,16.222416 46.030507,14.90625 43.34375,14.90625 C 38.481739,14.90625 34.463128,19.303357 33.96875,24.9375 C 31.727025,26.129683 30.1875,28.794681 30.1875,31.90625 C 30.187501,35.485335 32.241294,38.513825 35.03125,39.34375 C 35.286361,40.081569 35.63843,40.740483 36.03125,41.375 C 31.105488,42.284542 26.130595,44.295282 21.59375,47.4375 C 14.887706,52.082103 5.1503785,60.103555 4.15625,73.40625 C 13.002813,75.958424 22.264489,74.371764 30.1875,70.25 C 28.881042,80.207915 29.521731,89.680806 32.84375,96.4375 C 48.404529,128.08676 87.014546,120.02548 96.65625,95.25 C 99.161136,88.813402 99.190805,78.298689 97.125,67.1875 C 106.30533,70.468553 116.70252,70.655186 125.65625,66.0625 C 122.1166,53.155851 110.96572,47.125958 103.46875,43.84375 C 101.15158,42.829281 98.803163,42.060842 96.4375,41.53125 C 96.437501,40.967273 96.367344,40.439891 96.1875,39.9375 C 98.476071,38.476999 100.03125,35.593001 100.03125,32.28125 C 100.03125,30.269546 99.435301,28.442915 98.46875,26.96875 C 98.951654,26.22275 99.25,25.329187 99.25,24.375 C 99.249998,21.74009 97.103659,19.59375 94.46875,19.59375 C 94.109693,19.593749 93.773969,19.643484 93.4375,19.71875 C 92.232472,16.515475 89.158252,14.21875 85.53125,14.21875 C 83.039868,14.21875 80.800795,15.31768 79.25,17.03125 C 77.910399,16.153398 76.356184,15.625 74.71875,15.625 C 73.657521,15.625 72.639488,15.863849 71.6875,16.25 C 70.244366,13.543394 67.698131,11.75 64.8125,11.75 z"
         style="fill:#ffffff;fill-rule:evenodd;stroke:#000000;stroke-width:6;stroke-linecap:butt;stroke-linejoin:round;stroke-miterlimit:4;stroke-dasharray:none;stroke-opacity:1" />
      <path
         sodipodi:nodetypes="cscc"
         id="path3697"
         d="M 125.65597,66.048696 C 122.11632,53.142049 110.98062,47.117648 103.48365,43.83544 C 93.102716,39.290622 81.74328,39.699506 73.812698,44.274764 C 78.750187,62.956714 105.77225,76.24776 125.65597,66.048696 z"
         style="fill:#ffffff;fill-rule:evenodd;stroke:#000000;stroke-width:2.88035226;stroke-linecap:butt;stroke-linejoin:miter;stroke-miterlimit:4;stroke-dasharray:none;stroke-opacity:1" />
      <path
         style="fill:#ffffff;fill-rule:evenodd;stroke:#000000;stroke-width:2.87100434;stroke-linecap:butt;stroke-linejoin:miter;stroke-miterlimit:4;stroke-dasharray:none;stroke-opacity:1"
         d="M 4.1488911,73.419828 C 5.1430195,60.117135 14.884145,52.0941 21.590189,47.449497 C 30.875933,41.018192 42.066329,39.245622 50.699332,42.204526 C 49.442339,61.424162 25.550432,79.594028 4.1488911,73.419828 z"
         id="path3695"
         sodipodi:nodetypes="cscc" />
      <path
         sodipodi:nodetypes="csss"
         id="path3638"
         d="M 96.646771,95.250556 C 104.05032,76.226281 90.080085,21.51033 63.067542,21.38861 C 40.065042,21.284959 21.798298,73.960935 32.853098,96.445425 C 48.413879,128.09469 87.005067,120.02604 96.646771,95.250556 z"
         style="fill:#ffccaa;fill-rule:evenodd;stroke:#000000;stroke-width:2.63156605;stroke-linecap:butt;stroke-linejoin:miter;stroke-miterlimit:4;stroke-dasharray:none;stroke-opacity:1" />
      <path
         id="path3643"
         d="M 64.809985,11.737553 C 63.02532,11.737553 61.383572,12.431646 60.053174,13.603485 C 59.212776,12.865621 58.131154,12.420852 56.925768,12.420852 C 54.290854,12.420852 52.142676,14.542751 52.142677,17.177663 C 52.142677,17.36905 52.147022,17.570319 52.168957,17.755839 C 51.483068,17.8993 50.824997,18.119439 50.171623,18.386576 C 48.455844,16.233992 46.025392,14.917521 43.338635,14.917521 C 38.476623,14.917521 34.477076,19.296333 33.982698,24.930476 C 31.740972,26.122658 30.171993,28.809579 30.171993,31.921148 C 30.171994,35.500233 32.243971,38.502386 35.033927,39.332311 C 36.250712,42.851432 39.161309,45.350597 42.550213,45.350597 C 43.765604,45.350598 44.930909,45.001015 45.966707,44.430771 C 48.208787,46.724492 51.110611,48.110072 54.297696,48.110072 C 59.288264,48.110072 63.62919,44.728961 65.756091,39.779084 C 67.358591,41.284126 69.366547,42.170629 71.56413,42.170629 C 73.326805,42.170628 74.959874,41.570763 76.373502,40.567505 C 77.538091,44.218472 80.496602,46.822317 83.968631,46.822317 C 85.663083,46.822317 87.238116,46.205032 88.541476,45.140351 C 89.381875,45.878214 90.463493,46.322983 91.668882,46.322983 C 94.303792,46.322983 96.451974,44.174802 96.451974,41.539892 C 96.451974,40.975913 96.369011,40.439159 96.189167,39.936768 C 98.477734,38.476267 100.02615,35.600829 100.02615,32.289078 C 100.02615,30.277374 99.44214,28.428256 98.475589,26.954091 C 98.95849,26.20809 99.23773,25.332768 99.23773,24.378581 C 99.23773,21.74367 97.115829,19.595489 94.48092,19.595489 C 94.121862,19.595489 93.76616,19.651627 93.429691,19.726893 C 92.224659,16.523617 89.146195,14.234222 85.519193,14.234222 C 83.027814,14.234222 80.788896,15.306408 79.238101,17.019978 C 77.898497,16.142126 76.355251,15.6271 74.717817,15.6271 C 73.65659,15.6271 72.647522,15.871687 71.695534,16.257838 C 70.2524,13.551231 67.695616,11.737553 64.809985,11.737553 z"
         style="fill:#ffffff;fill-opacity:1;fill-rule:nonzero;stroke:#000000;stroke-width:2.52294922;stroke-linecap:round;stroke-linejoin:round;marker:none;marker-start:none;marker-mid:none;marker-end:none;stroke-miterlimit:4;stroke-dasharray:none;stroke-dashoffset:0;stroke-opacity:1;visibility:visible;display:inline;overflow:visible;enable-background:accumulate" />
      <g
         transform="matrix(1.438145,0.6470541,-0.6470541,1.438145,-42.089469,-43.473623)"
         id="g3518">
        <path
           sodipodi:type="arc"
           style="fill:#000000;fill-opacity:1;fill-rule:nonzero;stroke:none;stroke-width:3;stroke-linecap:round;stroke-linejoin:round;marker:none;marker-start:none;marker-mid:none;marker-end:none;stroke-miterlimit:4;stroke-dasharray:none;stroke-dashoffset:0;stroke-opacity:1;visibility:visible;display:inline;overflow:visible;enable-background:accumulate"
           id="path3183"
           sodipodi:cx="72"
           sodipodi:cy="48"
           sodipodi:rx="4"
           sodipodi:ry="4"
           d="M 76,48 A 4,4 0 1 1 68,48 A 4,4 0 1 1 76,48 z"
           transform="translate(10.649351,-9.4990724)" />
        <path
           transform="matrix(0.3961039,0,0,0.3961039,55.120594,18.83488)"
           d="M 76,48 A 4,4 0 1 1 68,48 A 4,4 0 1 1 76,48 z"
           sodipodi:ry="4"
           sodipodi:rx="4"
           sodipodi:cy="48"
           sodipodi:cx="72"
           id="path3185"
           style="fill:#ffffff;fill-opacity:1;fill-rule:nonzero;stroke:none;stroke-width:3;stroke-linecap:round;stroke-linejoin:round;marker:none;marker-start:none;marker-mid:none;marker-end:none;stroke-miterlimit:4;stroke-dasharray:none;stroke-dashoffset:0;stroke-opacity:1;visibility:visible;display:inline;overflow:visible;enable-background:accumulate"
           sodipodi:type="arc" />
        <path
           transform="translate(25.61039,-16.267161)"
           d="M 76,48 A 4,4 0 1 1 68,48 A 4,4 0 1 1 76,48 z"
           sodipodi:ry="4"
           sodipodi:rx="4"
           sodipodi:cy="48"
           sodipodi:cx="72"
           id="path3195"
           style="fill:#000000;fill-opacity:1;fill-rule:nonzero;stroke:none;stroke-width:3;stroke-linecap:round;stroke-linejoin:round;marker:none;marker-start:none;marker-mid:none;marker-end:none;stroke-miterlimit:4;stroke-dasharray:none;stroke-dashoffset:0;stroke-opacity:1;visibility:visible;display:inline;overflow:visible;enable-background:accumulate"
           sodipodi:type="arc" />
        <path
           sodipodi:type="arc"
           style="fill:#ffffff;fill-opacity:1;fill-rule:nonzero;stroke:none;stroke-width:3;stroke-linecap:round;stroke-linejoin:round;marker:none;marker-start:none;marker-mid:none;marker-end:none;stroke-miterlimit:4;stroke-dasharray:none;stroke-dashoffset:0;stroke-opacity:1;visibility:visible;display:inline;overflow:visible;enable-background:accumulate"
           id="path3197"
           sodipodi:cx="72"
           sodipodi:cy="48"
           sodipodi:rx="4"
           sodipodi:ry="4"
           d="M 76,48 A 4,4 0 1 1 68,48 A 4,4 0 1 1 76,48 z"
           transform="matrix(0.3961039,0,0,0.3961039,70.081633,12.066791)" />
      </g>
      <g
         inkscape:transform-center-y="3.9241956"
         inkscape:transform-center-x="3.2997387"
         transform="matrix(0.7778025,0.6285087,-0.6285087,0.7778025,77.013229,-10.361336)"
         id="g3780">
        <path
           sodipodi:nodetypes="cscc"
           id="path3771"
           d="M 62.183487,99.204919 C 60.49765,96.705142 58.337734,95.988152 55.959548,95.310164 C 52.895018,94.436517 51.053775,95.476847 48.988674,96.386877 C 53.87003,95.428732 58.650332,96.765231 62.183487,99.204919 z"
           style="fill:#000000;fill-rule:evenodd;stroke:#000000;stroke-width:0.93832415px;stroke-linecap:round;stroke-linejoin:round;stroke-opacity:1" />
        <path
           style="fill:#000000;fill-opacity:1;fill-rule:nonzero;stroke:none;stroke-width:3;stroke-linecap:round;stroke-linejoin:round;marker:none;marker-start:none;marker-mid:none;marker-end:none;stroke-miterlimit:4;stroke-dashoffset:0;stroke-opacity:1;visibility:visible;display:inline;overflow:visible;enable-background:accumulate"
           d="M 54.896069,98.553072 C 54.498082,99.762165 52.789733,100.28744 51.082784,99.72558 C 49.375836,99.163721 48.313488,97.726433 48.711475,96.517341 C 49.109459,95.308256 50.817811,94.782972 52.524758,95.344833 C 54.231707,95.906695 55.294053,97.343987 54.896069,98.553072 z"
           id="path3775" />
      </g>
      <g
         transform="matrix(0.7993521,-0.6008629,0.6008629,0.7993521,-45.782731,68.702739)"
         id="g3784">
        <path
           style="fill:#000000;fill-rule:evenodd;stroke:#000000;stroke-width:0.99880821px;stroke-linecap:round;stroke-linejoin:round;stroke-opacity:1"
           d="M 69.468824,99.206523 C 71.048626,96.412794 73.280668,95.471232 75.747593,94.552797 C 78.926474,93.369309 80.96738,94.31922 83.234936,95.112131 C 77.974839,94.503792 73.013965,96.321997 69.468824,99.206523 z"
           id="path3773"
           sodipodi:nodetypes="cscc"
           inkscape:transform-center-x="-7.3416612"
           inkscape:transform-center-y="-3.1426362" />
        <path
           id="path3778"
           d="M 83.691434,95.113642 C 84.171374,96.288668 83.214572,97.79221 81.555717,98.469772 C 79.896861,99.147328 78.16103,98.743596 77.681089,97.568572 C 77.201152,96.393553 78.157954,94.890007 79.816809,94.212447 C 81.475664,93.534886 83.211497,93.938623 83.691434,95.113642 z"
           style="fill:#000000;fill-opacity:1;fill-rule:nonzero;stroke:none;stroke-width:3;stroke-linecap:round;stroke-linejoin:round;marker:none;marker-start:none;marker-mid:none;marker-end:none;stroke-miterlimit:4;stroke-dashoffset:0;stroke-opacity:1;visibility:visible;display:inline;overflow:visible;enable-background:accumulate"
           inkscape:transform-center-x="-2.0288668"
           inkscape:transform-center-y="1.2173202" />
      </g>
    </g>
  </g>
  <g
     inkscape:label="Layer 1"
     inkscape:groupmode="layer"
     id="layer1"
     transform="translate(183.219,-198.691)" />
</svg>
